<svg xmlns="http://www.w3.org/2000/svg" viewBox="0 0 400 500" font-family="'Apple SD Gothic Neo','Noto Sans KR',Arial,sans-serif">
<defs>
  <radialGradient id="p2-body" cx="36%" cy="30%" r="70%">
    <stop offset="0%" stop-color="#FF7090"/>
    <stop offset="55%" stop-color="#FF3355"/>
    <stop offset="100%" stop-color="#BB0030"/>
  </radialGradient>
  <radialGradient id="p2-bg" cx="50%" cy="20%" r="90%">
    <stop offset="0%" stop-color="#F0F8FF"/>
    <stop offset="100%" stop-color="#D8EEFF"/>
  </radialGradient>
  <radialGradient id="p2-face" cx="38%" cy="32%" r="68%">
    <stop offset="0%" stop-color="#FFE8EE"/>
    <stop offset="100%" stop-color="#FFBCCC"/>
  </radialGradient>
  <linearGradient id="p2-leaf" x1="0" y1="0" x2="0.2" y2="1">
    <stop offset="0%" stop-color="#76C442"/>
    <stop offset="100%" stop-color="#2E7D32"/>
  </linearGradient>
  <linearGradient id="p2-water" x1="0" y1="0" x2="0" y2="1">
    <stop offset="0%" stop-color="#90D0F0"/>
    <stop offset="100%" stop-color="#5AAAD8"/>
  </linearGradient>
  <filter id="p2-drop" x="-25%" y="-15%" width="150%" height="145%">
    <feDropShadow dx="3" dy="8" stdDeviation="9" flood-color="#AA002240"/>
  </filter>
  <filter id="p2-soft" x="-20%" y="-20%" width="140%" height="140%">
    <feDropShadow dx="1" dy="3" stdDeviation="5" flood-color="#00000020"/>
  </filter>
</defs>

<!-- Background -->
<rect width="400" height="500" rx="20" fill="url(#p2-bg)"/>
<!-- Bubble decorations -->
<circle cx="38" cy="48" r="9" fill="#B0D8F8" opacity="0.38"/>
<circle cx="350" cy="35" r="6" fill="#B0D8F8" opacity="0.35"/>
<circle cx="375" cy="110" r="8" fill="#B0D8F8" opacity="0.3"/>
<circle cx="26" cy="185" r="6" fill="#B0D8F8" opacity="0.28"/>
<circle cx="368" cy="200" r="9" fill="#B0D8F8" opacity="0.28"/>
<circle cx="55" cy="155" r="5" fill="#B0D8F8" opacity="0.28"/>
<circle cx="340" cy="160" r="5.5" fill="#B0D8F8" opacity="0.25"/>
<!-- Border -->
<rect x="3" y="3" width="394" height="494" rx="18" fill="none" stroke="#A8D8F8" stroke-width="2.5"/>

<!-- Ground shadow -->
<ellipse cx="200" cy="405" rx="115" ry="14" fill="#6090B0" opacity="0.14"/>

<!-- Faucet -->
<rect x="186" y="234" width="28" height="12" rx="5" fill="#D0D0D8" stroke="#A0A0B0" stroke-width="1.8"/>
<rect x="193" y="220" width="14" height="30" rx="5" fill="#D0D0D8" stroke="#A0A0B0" stroke-width="1.8"/>
<rect x="207" y="217" width="22" height="8" rx="4" fill="#B8B8C4" stroke="#909098" stroke-width="1.8"/>
<!-- Faucet highlight -->
<rect x="195" y="222" width="5" height="16" rx="2.5" fill="white" opacity="0.4"/>

<!-- Water stream -->
<path d="M197,246 Q196,268 197,280" fill="none" stroke="#78C0E8" stroke-width="7" stroke-linecap="round" opacity="0.85"/>
<path d="M203,246 Q204,268 203,280" fill="none" stroke="#78C0E8" stroke-width="4" stroke-linecap="round" opacity="0.6"/>

<!-- === BERRYBOT === -->
<g filter="url(#p2-drop)">
  <!-- Legs -->
  <rect x="148" y="368" width="16" height="28" rx="8" fill="#B8B8C8" stroke="#909098" stroke-width="2"/>
  <rect x="172" y="368" width="16" height="28" rx="8" fill="#B8B8C8" stroke="#909098" stroke-width="2"/>
  <!-- Feet -->
  <ellipse cx="156" cy="396" rx="14" ry="8.5" fill="#909098" stroke="#686870" stroke-width="1.8"/>
  <ellipse cx="180" cy="396" rx="14" ry="8.5" fill="#909098" stroke="#686870" stroke-width="1.8"/>

  <!-- Body -->
  <path d="M166,178 C114,183 92,222 94,268 C96,314 129,356 166,368 C203,356 236,314 238,268 C240,222 218,183 166,178" fill="url(#p2-body)" stroke="#AA0022" stroke-width="3"/>

  <!-- Apron -->
  <path d="M122,268 Q166,258 210,268 Q207,326 166,340 Q125,326 122,268" fill="white" fill-opacity="0.80" stroke="#FFD8E0" stroke-width="1.5"/>
  <ellipse cx="150" cy="290" rx="5.5" ry="7" fill="#FF3355" opacity="0.38"/>
  <ellipse cx="167" cy="283" rx="4.5" ry="6" fill="#FF3355" opacity="0.28"/>
  <ellipse cx="182" cy="296" rx="4.5" ry="6" fill="#FF3355" opacity="0.28"/>

  <!-- Seeds -->
  <ellipse cx="132" cy="232" rx="6" ry="4.1" fill="#FFE14D" stroke="#CCA800" stroke-width="1.5" transform="rotate(-20,132,232)"/>
  <ellipse cx="160" cy="218" rx="6" ry="4.1" fill="#FFE14D" stroke="#CCA800" stroke-width="1.5" transform="rotate(-5,160,218)"/>
  <ellipse cx="192" cy="226" rx="6" ry="4.1" fill="#FFE14D" stroke="#CCA800" stroke-width="1.5" transform="rotate(15,192,226)"/>
  <ellipse cx="123" cy="268" rx="5" ry="3.4" fill="#FFE14D" stroke="#CCA800" stroke-width="1.5" transform="rotate(-15,123,268)"/>
  <ellipse cx="208" cy="264" rx="5" ry="3.4" fill="#FFE14D" stroke="#CCA800" stroke-width="1.5" transform="rotate(20,208,264)"/>

  <!-- Water drops on body -->
  <circle cx="110" cy="245" r="4.5" fill="#78C0E8" opacity="0.65"/>
  <circle cx="222" cy="240" r="3.5" fill="#78C0E8" opacity="0.65"/>
  <circle cx="104" cy="294" r="3" fill="#78C0E8" opacity="0.55"/>
  <circle cx="228" cy="288" r="4" fill="#78C0E8" opacity="0.55"/>

  <!-- Arms (down into sink) -->
  <path d="M95,268 L70,300" stroke="url(#p2-body)" stroke-width="20" stroke-linecap="round"/>
  <circle cx="62" cy="308" r="14" fill="#FF3355" stroke="#AA0022" stroke-width="2.5"/>
  <path d="M237,268 L262,300" stroke="url(#p2-body)" stroke-width="20" stroke-linecap="round"/>
  <circle cx="270" cy="308" r="14" fill="#FF3355" stroke="#AA0022" stroke-width="2.5"/>

  <!-- Leaf crown -->
  <path d="M126,185 C124,155 138,138 149,156 C149,134 160,121 168,139 C174,122 186,132 181,151 C191,135 204,145 198,164 C208,153 220,164 212,183 L166,186 Z" fill="url(#p2-leaf)" stroke="#1B5E20" stroke-width="2.2"/>
  <path d="M147,163 C149,146 158,133 163,141" fill="none" stroke="#A5D6A7" stroke-width="2" stroke-linecap="round"/>
  <path d="M180,151 C182,138 188,132 190,139" fill="none" stroke="#A5D6A7" stroke-width="1.5" stroke-linecap="round"/>

  <!-- Face -->
  <ellipse cx="166" cy="214" rx="42" ry="33" fill="url(#p2-face)"/>

  <!-- Heart eyes -->
  <path d="M138,206 C138,200 144,197 147,202 C150,197 156,200 156,206 C156,212 147,219 147,219 C147,219 138,212 138,206 Z" fill="#FF3355"/>
  <path d="M170,206 C170,200 176,197 179,202 C182,197 188,200 188,206 C188,212 179,219 179,219 C179,219 170,212 170,206 Z" fill="#FF3355"/>
  <!-- Heart highlights -->
  <circle cx="143" cy="202" r="2.5" fill="white" opacity="0.6"/>
  <circle cx="175" cy="202" r="2.5" fill="white" opacity="0.6"/>

  <!-- Happy mouth -->
  <path d="M152,228 Q166,242 180,228" fill="none" stroke="#AA0022" stroke-width="3.2" stroke-linecap="round"/>

  <!-- Cheeks -->
  <ellipse cx="130" cy="224" rx="13" ry="8" fill="#FFB3C1" opacity="0.65"/>
  <ellipse cx="202" cy="224" rx="13" ry="8" fill="#FFB3C1" opacity="0.65"/>
</g>

<!-- === SINK AREA (front layer) === -->
<!-- Counter top -->
<rect x="56" y="318" width="288" height="54" rx="8" fill="#D8CCBA" stroke="#B0A090" stroke-width="2"/>
<rect x="56" y="318" width="288" height="14" rx="6" fill="#C4B8A4"/>
<!-- Sink basin -->
<rect x="100" y="275" width="200" height="98" rx="12" fill="#B8D4E8" stroke="#88AABF" stroke-width="2.5"/>
<rect x="108" y="283" width="184" height="82" rx="8" fill="#CCE8F8"/>

<!-- === WATER & FRUITS (front layer) === -->
<!-- Water fill -->
<rect x="108" y="284" width="184" height="88" rx="6" fill="url(#p2-water)" opacity="0.82"/>
<!-- Water surface ripples -->
<ellipse cx="200" cy="290" rx="58" ry="10" fill="none" stroke="#4890C0" stroke-width="2" opacity="0.5"/>
<ellipse cx="200" cy="290" rx="30" ry="6" fill="none" stroke="#4890C0" stroke-width="1.3" opacity="0.45"/>
<!-- Drain -->
<ellipse cx="200" cy="366" rx="11" ry="5" fill="#88A8BC" stroke="#6090A8" stroke-width="1.5"/>
<!-- Strawberry 1 -->
<ellipse cx="187" cy="314" rx="20" ry="17" fill="#FF3355" stroke="#CC1133" stroke-width="2.2"/>
<path d="M187,297 C180,289 174,291 177,297 C178,289 187,285 187,292 C187,285 196,289 197,297 C200,291 194,289 187,297" fill="#4CAF50" stroke="#2E7D32" stroke-width="1.5"/>
<ellipse cx="179" cy="311" rx="3.8" ry="2.7" fill="#FFE14D" stroke="#CCA800" stroke-width="1" transform="rotate(-10,179,311)"/>
<ellipse cx="190" cy="306" rx="3.8" ry="2.7" fill="#FFE14D" stroke="#CCA800" stroke-width="1"/>
<ellipse cx="199" cy="313" rx="3.5" ry="2.5" fill="#FFE14D" stroke="#CCA800" stroke-width="1" transform="rotate(10,199,313)"/>
<!-- Strawberry 2 -->
<ellipse cx="220" cy="308" rx="17" ry="14" fill="#FF4466" stroke="#CC1133" stroke-width="2"/>
<path d="M220,294 C214,287 209,289 211,294 C212,287 220,284 220,289 C220,284 228,287 229,294 C231,289 226,287 220,294" fill="#4CAF50" stroke="#2E7D32" stroke-width="1.5"/>
<ellipse cx="214" cy="305" rx="3.2" ry="2.3" fill="#FFE14D" stroke="#CCA800" stroke-width="1"/>
<ellipse cx="224" cy="302" rx="3.2" ry="2.3" fill="#FFE14D" stroke="#CCA800" stroke-width="1" transform="rotate(8,224,302)"/>
<!-- Strawberry 3 -->
<ellipse cx="163" cy="308" rx="16" ry="13" fill="#FF3355" stroke="#CC1133" stroke-width="2"/>
<path d="M163,295 C157,288 152,290 154,295 C155,288 163,285 163,290 C163,285 171,288 172,295 C174,290 169,288 163,295" fill="#4CAF50" stroke="#2E7D32" stroke-width="1.5"/>
<ellipse cx="158" cy="305" rx="3" ry="2.2" fill="#FFE14D" stroke="#CCA800" stroke-width="1"/>
<ellipse cx="167" cy="303" rx="3" ry="2.2" fill="#FFE14D" stroke="#CCA800" stroke-width="1"/>
<!-- Blueberries in water -->
<circle cx="142" cy="320" r="11" fill="#5566DD" stroke="#3344AA" stroke-width="1.8"/>
<circle cx="142" cy="320" r="4" fill="#8899FF" opacity="0.55"/>
<circle cx="128" cy="313" r="9.5" fill="#4455CC" stroke="#3344AA" stroke-width="1.8"/>
<circle cx="250" cy="318" r="10.5" fill="#5566DD" stroke="#3344AA" stroke-width="1.8"/>
<circle cx="250" cy="318" r="3.5" fill="#8899FF" opacity="0.55"/>
<circle cx="264" cy="311" r="9" fill="#4455CC" stroke="#3344AA" stroke-width="1.8"/>
<!-- Water splashes -->
<path d="M153,287 Q144,269 148,257" fill="none" stroke="#78C0E8" stroke-width="2.8" stroke-linecap="round"/>
<path d="M247,287 Q256,269 252,257" fill="none" stroke="#78C0E8" stroke-width="2.8" stroke-linecap="round"/>
<circle cx="142" cy="253" r="5" fill="#88C8F0" opacity="0.9"/>
<circle cx="255" cy="255" r="4.5" fill="#88C8F0" opacity="0.9"/>
<circle cx="134" cy="269" r="3.5" fill="#88C8F0" opacity="0.8"/>
<circle cx="265" cy="267" r="3" fill="#88C8F0" opacity="0.8"/>
<circle cx="126" cy="287" r="3" fill="#88C8F0" opacity="0.75"/>
<circle cx="274" cy="283" r="3.5" fill="#88C8F0" opacity="0.75"/>
<circle cx="176" cy="285" r="2.5" fill="#88C8F0" opacity="0.8"/>
<circle cx="222" cy="283" r="2.5" fill="#88C8F0" opacity="0.8"/>
<circle cx="160" cy="295" r="2" fill="#88C8F0" opacity="0.7"/>
<circle cx="241" cy="293" r="2" fill="#88C8F0" opacity="0.7"/>

<!-- Speech bubble -->
<path d="M16,38 Q16,18 36,18 L200,18 Q220,18 220,38 L220,88 Q220,108 200,108 L100,108 L88,124 L82,108 Q16,108 16,88 Z" fill="white" stroke="#A8D8F8" stroke-width="2.2" filter="url(#p2-soft)"/>
<text x="118" y="56" text-anchor="middle" font-size="13.5" font-weight="bold" fill="#333">먼지야 안녕~</text>
<text x="118" y="78" text-anchor="middle" font-size="13" font-weight="bold" fill="#2288CC">쏴아아아~ 💧</text>

<!-- Water drop effects -->
<text x="306" y="162" font-size="20" fill="#3399CC" opacity="0.7">💧</text>
<text x="338" y="198" font-size="15" fill="#3399CC" opacity="0.58"/>
<text x="50" y="162" font-size="15" fill="#3399CC" opacity="0.58">💧</text>
<text x="345" y="140" font-size="15" fill="#3399CC" opacity="0.5">💧</text>

<!-- Panel number -->
<circle cx="32" cy="32" r="20" fill="#FF3355" stroke="white" stroke-width="2.8" filter="url(#p2-soft)"/>
<text x="32" y="38" text-anchor="middle" fill="white" font-size="15" font-weight="bold">2</text>

<!-- Bottom caption -->
<rect x="0" y="420" width="400" height="80" rx="0" fill="white" fill-opacity="0.55"/>
<rect x="0" y="420" width="400" height="3" fill="#3399CC" fill-opacity="0.35"/>
<text x="200" y="452" text-anchor="middle" fill="#1A6FAA" font-size="20" font-weight="bold">깨끗이 씻어줄게! 💧</text>
<text x="200" y="474" text-anchor="middle" fill="#7090A8" font-size="12">3단 초음파 세척으로 농약 99% 제거</text>
</svg>
