<svg xmlns="http://www.w3.org/2000/svg" viewBox="0 0 32 32">
  <path d="M16,4 C8,9 4,15 6,22 C8,28 16,30 16,30 C16,30 24,28 26,22 C28,15 24,9 16,4Z" fill="#FF3355" stroke="#CC1133" stroke-width="1"/>
  <path d="M16,4 C13,0 9,1 10,4 C10,0 13,-1 16,2 C19,-1 22,0 22,4 C23,1 19,0 16,4Z" fill="#4CAF50" stroke="#2E7D32" stroke-width="0.8"/>
  <ellipse cx="12" cy="16" rx="2.2" ry="1.5" fill="#FFE14D" stroke="#CCA800" stroke-width="0.6" transform="rotate(-15,12,16)"/>
  <ellipse cx="19" cy="13" rx="2.2" ry="1.5" fill="#FFE14D" stroke="#CCA800" stroke-width="0.6" transform="rotate(10,19,13)"/>
  <ellipse cx="20" cy="21" rx="2" ry="1.4" fill="#FFE14D" stroke="#CCA800" stroke-width="0.6" transform="rotate(-10,20,21)"/>
  <ellipse cx="12" cy="23" rx="1.8" ry="1.3" fill="#FFE14D" stroke="#CCA800" stroke-width="0.6"/>
</svg>
